<?xml version="1.0" encoding="UTF-8"?>
<svg id="Capa_1" data-name="Capa 1" xmlns="http://www.w3.org/2000/svg" version="1.1" viewBox="0 0 142.67 142.68">
  <defs>
    <style>
      .cls-1 {
        fill: #ce0f27;
      }

      .cls-1, .cls-2 {
        stroke-width: 0px;
      }

      .cls-2 {
        fill: #fff;
      }
    </style>
  </defs>
  <path class="cls-2" d="M142.67,71.34c0,39.4-31.94,71.34-71.34,71.34S0,110.74,0,71.34,31.94,0,71.34,0s71.34,31.94,71.34,71.34"/>
  <path class="cls-1" d="M28.49,72.77c.87,16.97,17.72,30.73,39.08,32.29,1.8.13,3.61.17,5.42.12,21.2-.59,38.49-13.61,40.93-29.83.28-1.83.41-3.71.37-5.6-.08-3.56-.77-6.98-2.26-10.1-5.47-11.74-19.05-20.44-35.43-21.93-2.14-.21-4.3-.28-6.48-.22-2.94.07-5.8.37-8.56.88-13.28,2.22-30.53,12.37-32.85,29.29-.26,1.77-.23,3.83-.23,5.11M71.63,33.82c25.76,0,46.64,16.79,46.64,37.52s-20.88,37.52-46.64,37.52c-23.24,0-42.53-13.69-46.05-31.6-.36-1.81-.59-3.88-.59-5.92,0-17.43,14.54-31.03,32.17-35.68,4.61-1.22,9.42-1.84,14.47-1.84M59.72,71.21l-11.57,20.95-11.59-20.95,11.59-20.95,11.57,20.95ZM106.37,71.21l-11.58,20.95-11.59-20.95,11.59-20.95,11.58,20.95ZM83.04,71.21l-11.57,20.95-11.59-20.95,11.59-20.95,11.57,20.95Z"/>
</svg>